<mxfile host="app.diagrams.net" modified="2024-06-15T09:20:59.481Z" agent="Mozilla/5.0 (Macintosh; Intel Mac OS X 10_15_7) AppleWebKit/537.36 (KHTML, like Gecko) Chrome/125.0.0.0 Safari/537.36" etag="YdtUl0rikYTY3GNtJf_I" version="24.4.13" type="device">
  <diagram name="Страница — 1" id="hPWLItAFALXoMQSjBMM3">
    <mxGraphModel dx="1026" dy="1853" grid="1" gridSize="10" guides="1" tooltips="1" connect="1" arrows="1" fold="1" page="1" pageScale="1" pageWidth="827" pageHeight="1169" math="0" shadow="0">
      <root>
        <mxCell id="0" />
        <mxCell id="1" parent="0" />
        <mxCell id="Jmh3QzOyEM74GARBAJ_J-7" style="edgeStyle=orthogonalEdgeStyle;rounded=0;orthogonalLoop=1;jettySize=auto;html=1;" parent="1" source="iY3pbCh5fd34Qxhc9EzE-1" target="Jmh3QzOyEM74GARBAJ_J-2" edge="1">
          <mxGeometry relative="1" as="geometry" />
        </mxCell>
        <mxCell id="Jmh3QzOyEM74GARBAJ_J-1" value="Начало" style="ellipse;whiteSpace=wrap;html=1;aspect=fixed;fontSize=14;" parent="1" vertex="1">
          <mxGeometry x="280" y="-60" width="80" height="80" as="geometry" />
        </mxCell>
        <mxCell id="Jmh3QzOyEM74GARBAJ_J-8" style="edgeStyle=orthogonalEdgeStyle;rounded=0;orthogonalLoop=1;jettySize=auto;html=1;" parent="1" source="Jmh3QzOyEM74GARBAJ_J-2" target="Jmh3QzOyEM74GARBAJ_J-4" edge="1">
          <mxGeometry relative="1" as="geometry" />
        </mxCell>
        <mxCell id="Jmh3QzOyEM74GARBAJ_J-2" value="&lt;div&gt;f1 := f&#39;(x0)&lt;/div&gt;" style="rounded=0;whiteSpace=wrap;html=1;fontSize=14;" parent="1" vertex="1">
          <mxGeometry x="260" y="200" width="120" height="60" as="geometry" />
        </mxCell>
        <mxCell id="Jmh3QzOyEM74GARBAJ_J-3" value="Конец" style="ellipse;whiteSpace=wrap;html=1;aspect=fixed;fontSize=14;" parent="1" vertex="1">
          <mxGeometry x="280" y="570" width="80" height="80" as="geometry" />
        </mxCell>
        <mxCell id="Jmh3QzOyEM74GARBAJ_J-9" style="edgeStyle=orthogonalEdgeStyle;rounded=0;orthogonalLoop=1;jettySize=auto;html=1;entryX=0.5;entryY=0;entryDx=0;entryDy=0;" parent="1" source="Jmh3QzOyEM74GARBAJ_J-4" target="Jmh3QzOyEM74GARBAJ_J-5" edge="1">
          <mxGeometry relative="1" as="geometry" />
        </mxCell>
        <mxCell id="Jmh3QzOyEM74GARBAJ_J-13" value="&lt;span style=&quot;font-size: 14px;&quot;&gt;Да&lt;/span&gt;" style="edgeLabel;html=1;align=center;verticalAlign=middle;resizable=0;points=[];" parent="Jmh3QzOyEM74GARBAJ_J-9" vertex="1" connectable="0">
          <mxGeometry x="-0.0984" y="1" relative="1" as="geometry">
            <mxPoint y="1" as="offset" />
          </mxGeometry>
        </mxCell>
        <mxCell id="Jmh3QzOyEM74GARBAJ_J-11" style="edgeStyle=orthogonalEdgeStyle;rounded=0;orthogonalLoop=1;jettySize=auto;html=1;" parent="1" source="Jmh3QzOyEM74GARBAJ_J-4" target="Jmh3QzOyEM74GARBAJ_J-6" edge="1">
          <mxGeometry relative="1" as="geometry" />
        </mxCell>
        <mxCell id="Jmh3QzOyEM74GARBAJ_J-14" value="&lt;span style=&quot;font-size: 14px;&quot;&gt;Нет&lt;/span&gt;" style="edgeLabel;html=1;align=center;verticalAlign=middle;resizable=0;points=[];" parent="Jmh3QzOyEM74GARBAJ_J-11" vertex="1" connectable="0">
          <mxGeometry x="-0.1569" y="3" relative="1" as="geometry">
            <mxPoint x="-1" as="offset" />
          </mxGeometry>
        </mxCell>
        <mxCell id="Jmh3QzOyEM74GARBAJ_J-4" value="| f1 | &amp;lt;= ε" style="rhombus;whiteSpace=wrap;html=1;fontSize=14;" parent="1" vertex="1">
          <mxGeometry x="255" y="310" width="130" height="90" as="geometry" />
        </mxCell>
        <mxCell id="Jmh3QzOyEM74GARBAJ_J-10" style="edgeStyle=orthogonalEdgeStyle;rounded=0;orthogonalLoop=1;jettySize=auto;html=1;entryX=0.5;entryY=0;entryDx=0;entryDy=0;" parent="1" source="Jmh3QzOyEM74GARBAJ_J-5" target="Jmh3QzOyEM74GARBAJ_J-3" edge="1">
          <mxGeometry relative="1" as="geometry" />
        </mxCell>
        <mxCell id="Jmh3QzOyEM74GARBAJ_J-5" value="x* := x0&lt;div style=&quot;font-size: 14px;&quot;&gt;f* := f(x0)&lt;/div&gt;" style="rounded=0;whiteSpace=wrap;html=1;fontSize=14;" parent="1" vertex="1">
          <mxGeometry x="260" y="461" width="120" height="60" as="geometry" />
        </mxCell>
        <mxCell id="Jmh3QzOyEM74GARBAJ_J-12" style="edgeStyle=orthogonalEdgeStyle;rounded=0;orthogonalLoop=1;jettySize=auto;html=1;entryX=0;entryY=0.5;entryDx=0;entryDy=0;" parent="1" source="Jmh3QzOyEM74GARBAJ_J-6" target="Jmh3QzOyEM74GARBAJ_J-2" edge="1">
          <mxGeometry relative="1" as="geometry">
            <Array as="points">
              <mxPoint x="100" y="230" />
            </Array>
          </mxGeometry>
        </mxCell>
        <mxCell id="Jmh3QzOyEM74GARBAJ_J-6" value="f2 := f&#39;&#39;(x0)&lt;div&gt;newX0 := x0&lt;/div&gt;&lt;div&gt;x0 := newX0 - f1/f2&lt;/div&gt;" style="rounded=0;whiteSpace=wrap;html=1;fontSize=14;" parent="1" vertex="1">
          <mxGeometry x="30" y="325" width="140" height="60" as="geometry" />
        </mxCell>
        <mxCell id="iY3pbCh5fd34Qxhc9EzE-2" value="" style="edgeStyle=orthogonalEdgeStyle;rounded=0;orthogonalLoop=1;jettySize=auto;html=1;" edge="1" parent="1" source="Jmh3QzOyEM74GARBAJ_J-1" target="iY3pbCh5fd34Qxhc9EzE-1">
          <mxGeometry relative="1" as="geometry">
            <mxPoint x="320" y="20" as="sourcePoint" />
            <mxPoint x="320" y="200" as="targetPoint" />
          </mxGeometry>
        </mxCell>
        <mxCell id="iY3pbCh5fd34Qxhc9EzE-1" value="x0 := (a + b)/2" style="rounded=0;whiteSpace=wrap;html=1;fontSize=14;" vertex="1" parent="1">
          <mxGeometry x="260" y="80" width="120" height="60" as="geometry" />
        </mxCell>
      </root>
    </mxGraphModel>
  </diagram>
</mxfile>
